<svg xmlns="http://www.w3.org/2000/svg" width="960" height="520" viewBox="0 0 960 520">
  <rect width="960" height="520" fill="#f8fafc"/>
  <text x="24" y="32" font-family="Segoe UI, Arial" font-size="20">List-I beam sketches (a–d)</text>
  <g transform="translate(40,60)">
    <text x="0" y="0" font-size="16" font-family="Segoe UI, Arial">(a) Cantilever — UDL on outer half</text>
    <line x1="0" y1="40" x2="200" y2="40" stroke="#0f172a" stroke-width="4"/>
    <rect x="-8" y="20" width="8" height="40" fill="#334155"/>
    <path d="M100,20 H200 V40 H100 Z" fill="#fecaca" stroke="#b91c1c"/>
  </g>
  <g transform="translate(500,60)">
    <text x="0" y="0" font-size="16" font-family="Segoe UI, Arial">(b) Cantilever — triangular to fixed</text>
    <line x1="0" y1="40" x2="200" y2="40" stroke="#0f172a" stroke-width="4"/>
    <rect x="-8" y="20" width="8" height="40" fill="#334155"/>
    <path d="M0,10 L0,40 L200,40 Z" fill="#fecaca" stroke="#b91c1c"/>
  </g>
  <g transform="translate(40,260)">
    <text x="0" y="0" font-size="16" font-family="Segoe UI, Arial">(c) SS — full UDL span l</text>
    <line x1="0" y1="50" x2="220" y2="50" stroke="#0f172a" stroke-width="4"/>
    <polygon points="0,50 -10,70 10,70" fill="#334155"/>
    <polygon points="220,50 210,70 230,70" fill="#334155"/>
    <rect x="0" y="20" width="220" height="28" fill="#fecaca" stroke="#b91c1c"/>
  </g>
  <g transform="translate(500,260)">
    <text x="0" y="0" font-size="16" font-family="Segoe UI, Arial">(d) SS — UDL on span 2l</text>
    <line x1="0" y1="50" x2="320" y2="50" stroke="#0f172a" stroke-width="4"/>
    <polygon points="0,50 -10,70 10,70" fill="#334155"/>
    <polygon points="320,50 310,70 330,70" fill="#334155"/>
    <rect x="0" y="20" width="320" height="28" fill="#fecaca" stroke="#b91c1c"/>
    <text x="140" y="95" font-size="14" font-family="Segoe UI, Arial">span = 2l</text>
  </g>
</svg>
